<svg width="76" height="38" viewBox="0 0 76 38" fill="none" xmlns="http://www.w3.org/2000/svg">
<g filter="url(#filter0_d_59_144)">
<path d="M25.7055 32.48C24.0521 32.48 22.5055 32.1333 21.0655 31.44C19.6521 30.7467 18.5055 29.7333 17.6255 28.4C16.7721 27.0667 16.3455 25.48 16.3455 23.64V12.12C16.3455 11.72 16.2521 11.3733 16.0655 11.08C15.9055 10.76 15.6788 10.52 15.3855 10.36C15.0921 10.2 14.7588 10.12 14.3855 10.12C14.0121 10.12 13.6788 10.2 13.3855 10.36C13.0921 10.52 12.8521 10.76 12.6655 11.08C12.4788 11.3733 12.3855 11.72 12.3855 12.12V32H4.98547V12.4C4.98547 10.5867 5.41214 9.01333 6.26547 7.68C7.1188 6.34666 8.25214 5.32 9.66547 4.6C11.1055 3.85333 12.6788 3.48 14.3855 3.48C16.0921 3.48 17.6521 3.85333 19.0655 4.6C20.4788 5.32 21.6121 6.34666 22.4655 7.68C23.3188 9.01333 23.7455 10.5867 23.7455 12.4V23.92C23.7455 24.2933 23.8388 24.64 24.0255 24.96C24.2121 25.2533 24.4521 25.4933 24.7455 25.68C25.0388 25.84 25.3588 25.92 25.7055 25.92C26.0521 25.92 26.3721 25.84 26.6655 25.68C26.9855 25.4933 27.2388 25.2533 27.4255 24.96C27.6121 24.64 27.7055 24.2933 27.7055 23.92V12.4C27.7055 10.5867 28.1321 9.01333 28.9855 7.68C29.8388 6.34666 30.9721 5.32 32.3855 4.6C33.8255 3.85333 35.3988 3.48 37.1055 3.48C38.7855 3.48 40.3321 3.85333 41.7455 4.6C43.1588 5.32 44.2921 6.34666 45.1455 7.68C45.9988 9.01333 46.4255 10.5867 46.4255 12.4V32H39.0655V12.04C39.0655 11.6667 38.9721 11.3333 38.7855 11.04C38.5988 10.7467 38.3588 10.52 38.0655 10.36C37.7721 10.2 37.4521 10.12 37.1055 10.12C36.7321 10.12 36.3855 10.2 36.0655 10.36C35.7721 10.52 35.5321 10.7467 35.3455 11.04C35.1855 11.3333 35.1055 11.6667 35.1055 12.04V23.64C35.1055 25.48 34.6655 27.0667 33.7855 28.4C32.9055 29.7333 31.7588 30.7467 30.3455 31.44C28.9321 32.1333 27.3855 32.48 25.7055 32.48ZM65.2608 32C63.5274 32 61.9808 31.6267 60.6208 30.88C59.2874 30.1067 58.2341 29.0667 57.4608 27.76C56.7141 26.4533 56.3408 24.9867 56.3408 23.36V10.2H48.9008V4H71.3008V10.2H63.9808V23.88C63.9808 24.4133 64.1674 24.8667 64.5408 25.24C64.9141 25.6133 65.3541 25.8 65.8608 25.8H68.3408V32H65.2608Z" fill="url(#paint0_linear_59_144)"/>
</g>
<defs>
<filter id="filter0_d_59_144" x="0.985474" y="0.47998" width="74.3153" height="37" filterUnits="userSpaceOnUse" color-interpolation-filters="sRGB">
<feFlood flood-opacity="0" result="BackgroundImageFix"/>
<feColorMatrix in="SourceAlpha" type="matrix" values="0 0 0 0 0 0 0 0 0 0 0 0 0 0 0 0 0 0 127 0" result="hardAlpha"/>
<feOffset dy="1"/>
<feGaussianBlur stdDeviation="2"/>
<feComposite in2="hardAlpha" operator="out"/>
<feColorMatrix type="matrix" values="0 0 0 0 0.0470588 0 0 0 0 0.0470588 0 0 0 0 0.0509804 0 0 0 0.05 0"/>
<feBlend mode="normal" in2="BackgroundImageFix" result="effect1_dropShadow_59_144"/>
<feBlend mode="normal" in="SourceGraphic" in2="effect1_dropShadow_59_144" result="shape"/>
</filter>
<linearGradient id="paint0_linear_59_144" x1="37.5" y1="-44" x2="37.5" y2="79" gradientUnits="userSpaceOnUse">
<stop offset="0.355" stop-color="#DB5BF0"/>
<stop offset="0.73" stop-color="#150866"/>
</linearGradient>
</defs>
</svg>
